<svg xmlns="http://www.w3.org/2000/svg" xmlns:xlink="http://www.w3.org/1999/xlink" width="2050" zoomAndPan="magnify" viewBox="0 0 1537.5 255.749984" height="341" preserveAspectRatio="xMidYMid meet" version="1.0"><defs><g/><clipPath id="c5c5a5621a"><path d="M 0.5 0 L 1536.5 0 L 1536.5 255.5 L 0.5 255.5 Z M 0.5 0 " clip-rule="nonzero"/></clipPath><linearGradient x1="0" gradientTransform="matrix(0.749268, 0, 0, 0.749268, 0.501025, -0.00000999023)" y1="170.5" x2="2049.999915" gradientUnits="userSpaceOnUse" y2="170.5" id="e223f90e95"><stop stop-opacity="1" stop-color="rgb(10.198975%, 40.79895%, 67.098999%)" offset="0"/><stop stop-opacity="1" stop-color="rgb(10.159302%, 40.638733%, 66.836548%)" offset="0.00390625"/><stop stop-opacity="1" stop-color="rgb(10.119629%, 40.480042%, 66.575623%)" offset="0.0078125"/><stop stop-opacity="1" stop-color="rgb(10.079956%, 40.319824%, 66.313171%)" offset="0.0117188"/><stop stop-opacity="1" stop-color="rgb(10.040283%, 40.161133%, 66.05072%)" offset="0.015625"/><stop stop-opacity="1" stop-color="rgb(10.00061%, 40.002441%, 65.788269%)" offset="0.0195312"/><stop stop-opacity="1" stop-color="rgb(9.960938%, 39.84375%, 65.527344%)" offset="0.0234375"/><stop stop-opacity="1" stop-color="rgb(9.919739%, 39.683533%, 65.264893%)" offset="0.0273438"/><stop stop-opacity="1" stop-color="rgb(9.880066%, 39.524841%, 65.002441%)" offset="0.03125"/><stop stop-opacity="1" stop-color="rgb(9.840393%, 39.364624%, 64.73999%)" offset="0.0351562"/><stop stop-opacity="1" stop-color="rgb(9.80072%, 39.205933%, 64.477539%)" offset="0.0390625"/><stop stop-opacity="1" stop-color="rgb(9.761047%, 39.045715%, 64.215088%)" offset="0.0429688"/><stop stop-opacity="1" stop-color="rgb(9.721375%, 38.887024%, 63.954163%)" offset="0.046875"/><stop stop-opacity="1" stop-color="rgb(9.681702%, 38.726807%, 63.691711%)" offset="0.0507812"/><stop stop-opacity="1" stop-color="rgb(9.642029%, 38.568115%, 63.42926%)" offset="0.0546875"/><stop stop-opacity="1" stop-color="rgb(9.60083%, 38.407898%, 63.166809%)" offset="0.0585938"/><stop stop-opacity="1" stop-color="rgb(9.561157%, 38.249207%, 62.905884%)" offset="0.0625"/><stop stop-opacity="1" stop-color="rgb(9.521484%, 38.088989%, 62.643433%)" offset="0.0664062"/><stop stop-opacity="1" stop-color="rgb(9.481812%, 37.930298%, 62.380981%)" offset="0.0703125"/><stop stop-opacity="1" stop-color="rgb(9.442139%, 37.770081%, 62.11853%)" offset="0.0742188"/><stop stop-opacity="1" stop-color="rgb(9.402466%, 37.611389%, 61.857605%)" offset="0.078125"/><stop stop-opacity="1" stop-color="rgb(9.362793%, 37.451172%, 61.595154%)" offset="0.0820312"/><stop stop-opacity="1" stop-color="rgb(9.32312%, 37.29248%, 61.332703%)" offset="0.0859375"/><stop stop-opacity="1" stop-color="rgb(9.281921%, 37.132263%, 61.070251%)" offset="0.0898438"/><stop stop-opacity="1" stop-color="rgb(9.242249%, 36.973572%, 60.809326%)" offset="0.09375"/><stop stop-opacity="1" stop-color="rgb(9.202576%, 36.81488%, 60.546875%)" offset="0.0976562"/><stop stop-opacity="1" stop-color="rgb(9.162903%, 36.656189%, 60.284424%)" offset="0.101562"/><stop stop-opacity="1" stop-color="rgb(9.12323%, 36.495972%, 60.021973%)" offset="0.105469"/><stop stop-opacity="1" stop-color="rgb(9.083557%, 36.33728%, 59.759521%)" offset="0.109375"/><stop stop-opacity="1" stop-color="rgb(9.043884%, 36.177063%, 59.49707%)" offset="0.113281"/><stop stop-opacity="1" stop-color="rgb(9.004211%, 36.018372%, 59.236145%)" offset="0.117188"/><stop stop-opacity="1" stop-color="rgb(8.964539%, 35.858154%, 58.973694%)" offset="0.121094"/><stop stop-opacity="1" stop-color="rgb(8.924866%, 35.699463%, 58.711243%)" offset="0.125"/><stop stop-opacity="1" stop-color="rgb(8.883667%, 35.539246%, 58.448792%)" offset="0.128906"/><stop stop-opacity="1" stop-color="rgb(8.843994%, 35.380554%, 58.187866%)" offset="0.132812"/><stop stop-opacity="1" stop-color="rgb(8.804321%, 35.220337%, 57.925415%)" offset="0.136719"/><stop stop-opacity="1" stop-color="rgb(8.764648%, 35.061646%, 57.662964%)" offset="0.140625"/><stop stop-opacity="1" stop-color="rgb(8.724976%, 34.901428%, 57.400513%)" offset="0.144531"/><stop stop-opacity="1" stop-color="rgb(8.685303%, 34.742737%, 57.139587%)" offset="0.148438"/><stop stop-opacity="1" stop-color="rgb(8.64563%, 34.58252%, 56.877136%)" offset="0.152344"/><stop stop-opacity="1" stop-color="rgb(8.605957%, 34.423828%, 56.614685%)" offset="0.15625"/><stop stop-opacity="1" stop-color="rgb(8.564758%, 34.263611%, 56.352234%)" offset="0.160156"/><stop stop-opacity="1" stop-color="rgb(8.525085%, 34.104919%, 56.091309%)" offset="0.164062"/><stop stop-opacity="1" stop-color="rgb(8.485413%, 33.944702%, 55.828857%)" offset="0.167969"/><stop stop-opacity="1" stop-color="rgb(8.44574%, 33.786011%, 55.566406%)" offset="0.171875"/><stop stop-opacity="1" stop-color="rgb(8.406067%, 33.627319%, 55.303955%)" offset="0.175781"/><stop stop-opacity="1" stop-color="rgb(8.366394%, 33.468628%, 55.041504%)" offset="0.179688"/><stop stop-opacity="1" stop-color="rgb(8.326721%, 33.308411%, 54.779053%)" offset="0.183594"/><stop stop-opacity="1" stop-color="rgb(8.287048%, 33.149719%, 54.518127%)" offset="0.1875"/><stop stop-opacity="1" stop-color="rgb(8.247375%, 32.989502%, 54.255676%)" offset="0.191406"/><stop stop-opacity="1" stop-color="rgb(8.207703%, 32.830811%, 53.993225%)" offset="0.195312"/><stop stop-opacity="1" stop-color="rgb(8.166504%, 32.670593%, 53.730774%)" offset="0.199219"/><stop stop-opacity="1" stop-color="rgb(8.126831%, 32.511902%, 53.469849%)" offset="0.203125"/><stop stop-opacity="1" stop-color="rgb(8.087158%, 32.351685%, 53.207397%)" offset="0.207031"/><stop stop-opacity="1" stop-color="rgb(8.047485%, 32.192993%, 52.944946%)" offset="0.210938"/><stop stop-opacity="1" stop-color="rgb(8.007812%, 32.032776%, 52.682495%)" offset="0.214844"/><stop stop-opacity="1" stop-color="rgb(7.96814%, 31.874084%, 52.42157%)" offset="0.21875"/><stop stop-opacity="1" stop-color="rgb(7.928467%, 31.713867%, 52.159119%)" offset="0.222656"/><stop stop-opacity="1" stop-color="rgb(7.888794%, 31.555176%, 51.896667%)" offset="0.226562"/><stop stop-opacity="1" stop-color="rgb(7.847595%, 31.394958%, 51.634216%)" offset="0.230469"/><stop stop-opacity="1" stop-color="rgb(7.807922%, 31.236267%, 51.373291%)" offset="0.234375"/><stop stop-opacity="1" stop-color="rgb(7.76825%, 31.07605%, 51.11084%)" offset="0.238281"/><stop stop-opacity="1" stop-color="rgb(7.728577%, 30.917358%, 50.848389%)" offset="0.242188"/><stop stop-opacity="1" stop-color="rgb(7.688904%, 30.758667%, 50.585938%)" offset="0.246094"/><stop stop-opacity="1" stop-color="rgb(7.649231%, 30.599976%, 50.323486%)" offset="0.25"/><stop stop-opacity="1" stop-color="rgb(7.609558%, 30.439758%, 50.061035%)" offset="0.253906"/><stop stop-opacity="1" stop-color="rgb(7.569885%, 30.281067%, 49.80011%)" offset="0.257812"/><stop stop-opacity="1" stop-color="rgb(7.530212%, 30.12085%, 49.537659%)" offset="0.261719"/><stop stop-opacity="1" stop-color="rgb(7.49054%, 29.962158%, 49.275208%)" offset="0.265625"/><stop stop-opacity="1" stop-color="rgb(7.449341%, 29.801941%, 49.012756%)" offset="0.269531"/><stop stop-opacity="1" stop-color="rgb(7.409668%, 29.64325%, 48.751831%)" offset="0.273438"/><stop stop-opacity="1" stop-color="rgb(7.369995%, 29.483032%, 48.48938%)" offset="0.277344"/><stop stop-opacity="1" stop-color="rgb(7.330322%, 29.324341%, 48.226929%)" offset="0.28125"/><stop stop-opacity="1" stop-color="rgb(7.290649%, 29.164124%, 47.964478%)" offset="0.285156"/><stop stop-opacity="1" stop-color="rgb(7.250977%, 29.005432%, 47.703552%)" offset="0.289062"/><stop stop-opacity="1" stop-color="rgb(7.211304%, 28.845215%, 47.441101%)" offset="0.292969"/><stop stop-opacity="1" stop-color="rgb(7.171631%, 28.686523%, 47.17865%)" offset="0.296875"/><stop stop-opacity="1" stop-color="rgb(7.130432%, 28.526306%, 46.916199%)" offset="0.300781"/><stop stop-opacity="1" stop-color="rgb(7.090759%, 28.367615%, 46.655273%)" offset="0.304688"/><stop stop-opacity="1" stop-color="rgb(7.051086%, 28.207397%, 46.392822%)" offset="0.308594"/><stop stop-opacity="1" stop-color="rgb(7.011414%, 28.048706%, 46.130371%)" offset="0.3125"/><stop stop-opacity="1" stop-color="rgb(6.971741%, 27.888489%, 45.86792%)" offset="0.316406"/><stop stop-opacity="1" stop-color="rgb(6.932068%, 27.729797%, 45.606995%)" offset="0.320312"/><stop stop-opacity="1" stop-color="rgb(6.892395%, 27.571106%, 45.344543%)" offset="0.324219"/><stop stop-opacity="1" stop-color="rgb(6.852722%, 27.412415%, 45.082092%)" offset="0.328125"/><stop stop-opacity="1" stop-color="rgb(6.813049%, 27.252197%, 44.819641%)" offset="0.332031"/><stop stop-opacity="1" stop-color="rgb(6.773376%, 27.093506%, 44.55719%)" offset="0.335938"/><stop stop-opacity="1" stop-color="rgb(6.732178%, 26.933289%, 44.294739%)" offset="0.339844"/><stop stop-opacity="1" stop-color="rgb(6.692505%, 26.774597%, 44.033813%)" offset="0.34375"/><stop stop-opacity="1" stop-color="rgb(6.652832%, 26.61438%, 43.771362%)" offset="0.347656"/><stop stop-opacity="1" stop-color="rgb(6.613159%, 26.455688%, 43.508911%)" offset="0.351562"/><stop stop-opacity="1" stop-color="rgb(6.573486%, 26.295471%, 43.24646%)" offset="0.355469"/><stop stop-opacity="1" stop-color="rgb(6.533813%, 26.13678%, 42.985535%)" offset="0.359375"/><stop stop-opacity="1" stop-color="rgb(6.494141%, 25.976562%, 42.723083%)" offset="0.363281"/><stop stop-opacity="1" stop-color="rgb(6.454468%, 25.817871%, 42.460632%)" offset="0.367188"/><stop stop-opacity="1" stop-color="rgb(6.413269%, 25.657654%, 42.198181%)" offset="0.371094"/><stop stop-opacity="1" stop-color="rgb(6.373596%, 25.498962%, 41.937256%)" offset="0.375"/><stop stop-opacity="1" stop-color="rgb(6.333923%, 25.338745%, 41.674805%)" offset="0.378906"/><stop stop-opacity="1" stop-color="rgb(6.29425%, 25.180054%, 41.412354%)" offset="0.382812"/><stop stop-opacity="1" stop-color="rgb(6.254578%, 25.019836%, 41.149902%)" offset="0.386719"/><stop stop-opacity="1" stop-color="rgb(6.214905%, 24.861145%, 40.888977%)" offset="0.390625"/><stop stop-opacity="1" stop-color="rgb(6.175232%, 24.700928%, 40.626526%)" offset="0.394531"/><stop stop-opacity="1" stop-color="rgb(6.135559%, 24.542236%, 40.364075%)" offset="0.398438"/><stop stop-opacity="1" stop-color="rgb(6.095886%, 24.383545%, 40.101624%)" offset="0.402344"/><stop stop-opacity="1" stop-color="rgb(6.056213%, 24.224854%, 39.839172%)" offset="0.40625"/><stop stop-opacity="1" stop-color="rgb(6.015015%, 24.064636%, 39.576721%)" offset="0.410156"/><stop stop-opacity="1" stop-color="rgb(5.975342%, 23.905945%, 39.315796%)" offset="0.414062"/><stop stop-opacity="1" stop-color="rgb(5.935669%, 23.745728%, 39.053345%)" offset="0.417969"/><stop stop-opacity="1" stop-color="rgb(5.895996%, 23.587036%, 38.790894%)" offset="0.421875"/><stop stop-opacity="1" stop-color="rgb(5.856323%, 23.426819%, 38.528442%)" offset="0.425781"/><stop stop-opacity="1" stop-color="rgb(5.81665%, 23.268127%, 38.267517%)" offset="0.429688"/><stop stop-opacity="1" stop-color="rgb(5.776978%, 23.10791%, 38.005066%)" offset="0.433594"/><stop stop-opacity="1" stop-color="rgb(5.737305%, 22.949219%, 37.742615%)" offset="0.4375"/><stop stop-opacity="1" stop-color="rgb(5.696106%, 22.789001%, 37.480164%)" offset="0.441406"/><stop stop-opacity="1" stop-color="rgb(5.656433%, 22.63031%, 37.219238%)" offset="0.445312"/><stop stop-opacity="1" stop-color="rgb(5.61676%, 22.470093%, 36.956787%)" offset="0.449219"/><stop stop-opacity="1" stop-color="rgb(5.577087%, 22.311401%, 36.694336%)" offset="0.453125"/><stop stop-opacity="1" stop-color="rgb(5.537415%, 22.151184%, 36.431885%)" offset="0.457031"/><stop stop-opacity="1" stop-color="rgb(5.497742%, 21.992493%, 36.170959%)" offset="0.460938"/><stop stop-opacity="1" stop-color="rgb(5.458069%, 21.832275%, 35.908508%)" offset="0.464844"/><stop stop-opacity="1" stop-color="rgb(5.418396%, 21.673584%, 35.646057%)" offset="0.46875"/><stop stop-opacity="1" stop-color="rgb(5.378723%, 21.514893%, 35.383606%)" offset="0.472656"/><stop stop-opacity="1" stop-color="rgb(5.33905%, 21.356201%, 35.121155%)" offset="0.476562"/><stop stop-opacity="1" stop-color="rgb(5.297852%, 21.195984%, 34.858704%)" offset="0.480469"/><stop stop-opacity="1" stop-color="rgb(5.258179%, 21.037292%, 34.597778%)" offset="0.484375"/><stop stop-opacity="1" stop-color="rgb(5.218506%, 20.877075%, 34.335327%)" offset="0.488281"/><stop stop-opacity="1" stop-color="rgb(5.178833%, 20.718384%, 34.072876%)" offset="0.492188"/><stop stop-opacity="1" stop-color="rgb(5.13916%, 20.558167%, 33.810425%)" offset="0.496094"/><stop stop-opacity="1" stop-color="rgb(5.099487%, 20.399475%, 33.5495%)" offset="0.5"/><stop stop-opacity="1" stop-color="rgb(5.059814%, 20.239258%, 33.287048%)" offset="0.503906"/><stop stop-opacity="1" stop-color="rgb(5.020142%, 20.080566%, 33.024597%)" offset="0.507812"/><stop stop-opacity="1" stop-color="rgb(4.978943%, 19.920349%, 32.762146%)" offset="0.511719"/><stop stop-opacity="1" stop-color="rgb(4.93927%, 19.761658%, 32.501221%)" offset="0.515625"/><stop stop-opacity="1" stop-color="rgb(4.899597%, 19.60144%, 32.23877%)" offset="0.519531"/><stop stop-opacity="1" stop-color="rgb(4.859924%, 19.442749%, 31.976318%)" offset="0.523438"/><stop stop-opacity="1" stop-color="rgb(4.820251%, 19.282532%, 31.713867%)" offset="0.527344"/><stop stop-opacity="1" stop-color="rgb(4.780579%, 19.12384%, 31.452942%)" offset="0.53125"/><stop stop-opacity="1" stop-color="rgb(4.740906%, 18.963623%, 31.190491%)" offset="0.535156"/><stop stop-opacity="1" stop-color="rgb(4.701233%, 18.804932%, 30.92804%)" offset="0.539062"/><stop stop-opacity="1" stop-color="rgb(4.660034%, 18.644714%, 30.665588%)" offset="0.542969"/><stop stop-opacity="1" stop-color="rgb(4.620361%, 18.486023%, 30.404663%)" offset="0.546875"/><stop stop-opacity="1" stop-color="rgb(4.580688%, 18.327332%, 30.142212%)" offset="0.550781"/><stop stop-opacity="1" stop-color="rgb(4.541016%, 18.16864%, 29.879761%)" offset="0.554688"/><stop stop-opacity="1" stop-color="rgb(4.501343%, 18.008423%, 29.61731%)" offset="0.558594"/><stop stop-opacity="1" stop-color="rgb(4.46167%, 17.849731%, 29.354858%)" offset="0.5625"/><stop stop-opacity="1" stop-color="rgb(4.421997%, 17.689514%, 29.092407%)" offset="0.566406"/><stop stop-opacity="1" stop-color="rgb(4.382324%, 17.530823%, 28.831482%)" offset="0.570312"/><stop stop-opacity="1" stop-color="rgb(4.342651%, 17.370605%, 28.569031%)" offset="0.574219"/><stop stop-opacity="1" stop-color="rgb(4.302979%, 17.211914%, 28.30658%)" offset="0.578125"/><stop stop-opacity="1" stop-color="rgb(4.26178%, 17.051697%, 28.044128%)" offset="0.582031"/><stop stop-opacity="1" stop-color="rgb(4.222107%, 16.893005%, 27.783203%)" offset="0.585938"/><stop stop-opacity="1" stop-color="rgb(4.182434%, 16.732788%, 27.520752%)" offset="0.589844"/><stop stop-opacity="1" stop-color="rgb(4.142761%, 16.574097%, 27.258301%)" offset="0.59375"/><stop stop-opacity="1" stop-color="rgb(4.103088%, 16.413879%, 26.99585%)" offset="0.597656"/><stop stop-opacity="1" stop-color="rgb(4.063416%, 16.255188%, 26.734924%)" offset="0.601562"/><stop stop-opacity="1" stop-color="rgb(4.023743%, 16.094971%, 26.472473%)" offset="0.605469"/><stop stop-opacity="1" stop-color="rgb(3.98407%, 15.936279%, 26.210022%)" offset="0.609375"/><stop stop-opacity="1" stop-color="rgb(3.942871%, 15.776062%, 25.947571%)" offset="0.613281"/><stop stop-opacity="1" stop-color="rgb(3.903198%, 15.617371%, 25.686646%)" offset="0.617188"/><stop stop-opacity="1" stop-color="rgb(3.863525%, 15.458679%, 25.424194%)" offset="0.621094"/><stop stop-opacity="1" stop-color="rgb(3.823853%, 15.299988%, 25.161743%)" offset="0.625"/><stop stop-opacity="1" stop-color="rgb(3.78418%, 15.139771%, 24.899292%)" offset="0.628906"/><stop stop-opacity="1" stop-color="rgb(3.744507%, 14.981079%, 24.636841%)" offset="0.632812"/><stop stop-opacity="1" stop-color="rgb(3.704834%, 14.820862%, 24.37439%)" offset="0.636719"/><stop stop-opacity="1" stop-color="rgb(3.665161%, 14.66217%, 24.113464%)" offset="0.640625"/><stop stop-opacity="1" stop-color="rgb(3.625488%, 14.501953%, 23.851013%)" offset="0.644531"/><stop stop-opacity="1" stop-color="rgb(3.585815%, 14.343262%, 23.588562%)" offset="0.648438"/><stop stop-opacity="1" stop-color="rgb(3.544617%, 14.183044%, 23.326111%)" offset="0.652344"/><stop stop-opacity="1" stop-color="rgb(3.504944%, 14.024353%, 23.065186%)" offset="0.65625"/><stop stop-opacity="1" stop-color="rgb(3.465271%, 13.864136%, 22.802734%)" offset="0.660156"/><stop stop-opacity="1" stop-color="rgb(3.425598%, 13.705444%, 22.540283%)" offset="0.664062"/><stop stop-opacity="1" stop-color="rgb(3.385925%, 13.545227%, 22.277832%)" offset="0.667969"/><stop stop-opacity="1" stop-color="rgb(3.346252%, 13.386536%, 22.016907%)" offset="0.671875"/><stop stop-opacity="1" stop-color="rgb(3.30658%, 13.226318%, 21.754456%)" offset="0.675781"/><stop stop-opacity="1" stop-color="rgb(3.266907%, 13.067627%, 21.492004%)" offset="0.679688"/><stop stop-opacity="1" stop-color="rgb(3.225708%, 12.90741%, 21.229553%)" offset="0.683594"/><stop stop-opacity="1" stop-color="rgb(3.186035%, 12.748718%, 20.968628%)" offset="0.6875"/><stop stop-opacity="1" stop-color="rgb(3.146362%, 12.588501%, 20.706177%)" offset="0.691406"/><stop stop-opacity="1" stop-color="rgb(3.106689%, 12.42981%, 20.443726%)" offset="0.695312"/><stop stop-opacity="1" stop-color="rgb(3.067017%, 12.271118%, 20.181274%)" offset="0.699219"/><stop stop-opacity="1" stop-color="rgb(3.027344%, 12.112427%, 19.918823%)" offset="0.703125"/><stop stop-opacity="1" stop-color="rgb(2.987671%, 11.952209%, 19.656372%)" offset="0.707031"/><stop stop-opacity="1" stop-color="rgb(2.947998%, 11.793518%, 19.395447%)" offset="0.710938"/><stop stop-opacity="1" stop-color="rgb(2.908325%, 11.633301%, 19.132996%)" offset="0.714844"/><stop stop-opacity="1" stop-color="rgb(2.868652%, 11.474609%, 18.870544%)" offset="0.71875"/><stop stop-opacity="1" stop-color="rgb(2.827454%, 11.314392%, 18.608093%)" offset="0.722656"/><stop stop-opacity="1" stop-color="rgb(2.787781%, 11.155701%, 18.347168%)" offset="0.726562"/><stop stop-opacity="1" stop-color="rgb(2.748108%, 10.995483%, 18.084717%)" offset="0.730469"/><stop stop-opacity="1" stop-color="rgb(2.708435%, 10.836792%, 17.822266%)" offset="0.734375"/><stop stop-opacity="1" stop-color="rgb(2.668762%, 10.676575%, 17.559814%)" offset="0.738281"/><stop stop-opacity="1" stop-color="rgb(2.629089%, 10.517883%, 17.298889%)" offset="0.742188"/><stop stop-opacity="1" stop-color="rgb(2.589417%, 10.357666%, 17.036438%)" offset="0.746094"/><stop stop-opacity="1" stop-color="rgb(2.549744%, 10.198975%, 16.773987%)" offset="0.75"/><stop stop-opacity="1" stop-color="rgb(2.508545%, 10.038757%, 16.511536%)" offset="0.753906"/><stop stop-opacity="1" stop-color="rgb(2.468872%, 9.880066%, 16.25061%)" offset="0.757812"/><stop stop-opacity="1" stop-color="rgb(2.429199%, 9.719849%, 15.988159%)" offset="0.761719"/><stop stop-opacity="1" stop-color="rgb(2.389526%, 9.561157%, 15.725708%)" offset="0.765625"/><stop stop-opacity="1" stop-color="rgb(2.349854%, 9.40094%, 15.463257%)" offset="0.769531"/><stop stop-opacity="1" stop-color="rgb(2.310181%, 9.242249%, 15.202332%)" offset="0.773438"/><stop stop-opacity="1" stop-color="rgb(2.270508%, 9.083557%, 14.93988%)" offset="0.777344"/><stop stop-opacity="1" stop-color="rgb(2.230835%, 8.924866%, 14.677429%)" offset="0.78125"/><stop stop-opacity="1" stop-color="rgb(2.191162%, 8.764648%, 14.414978%)" offset="0.785156"/><stop stop-opacity="1" stop-color="rgb(2.151489%, 8.605957%, 14.152527%)" offset="0.789062"/><stop stop-opacity="1" stop-color="rgb(2.110291%, 8.44574%, 13.890076%)" offset="0.792969"/><stop stop-opacity="1" stop-color="rgb(2.070618%, 8.287048%, 13.62915%)" offset="0.796875"/><stop stop-opacity="1" stop-color="rgb(2.030945%, 8.126831%, 13.366699%)" offset="0.800781"/><stop stop-opacity="1" stop-color="rgb(1.991272%, 7.96814%, 13.104248%)" offset="0.804688"/><stop stop-opacity="1" stop-color="rgb(1.951599%, 7.807922%, 12.841797%)" offset="0.808594"/><stop stop-opacity="1" stop-color="rgb(1.911926%, 7.649231%, 12.580872%)" offset="0.8125"/><stop stop-opacity="1" stop-color="rgb(1.872253%, 7.489014%, 12.31842%)" offset="0.816406"/><stop stop-opacity="1" stop-color="rgb(1.832581%, 7.330322%, 12.055969%)" offset="0.820312"/><stop stop-opacity="1" stop-color="rgb(1.791382%, 7.170105%, 11.793518%)" offset="0.824219"/><stop stop-opacity="1" stop-color="rgb(1.751709%, 7.011414%, 11.532593%)" offset="0.828125"/><stop stop-opacity="1" stop-color="rgb(1.712036%, 6.851196%, 11.270142%)" offset="0.832031"/><stop stop-opacity="1" stop-color="rgb(1.672363%, 6.692505%, 11.00769%)" offset="0.835938"/><stop stop-opacity="1" stop-color="rgb(1.63269%, 6.532288%, 10.745239%)" offset="0.839844"/><stop stop-opacity="1" stop-color="rgb(1.593018%, 6.373596%, 10.484314%)" offset="0.84375"/><stop stop-opacity="1" stop-color="rgb(1.553345%, 6.214905%, 10.221863%)" offset="0.847656"/><stop stop-opacity="1" stop-color="rgb(1.513672%, 6.056213%, 9.959412%)" offset="0.851562"/><stop stop-opacity="1" stop-color="rgb(1.473999%, 5.895996%, 9.69696%)" offset="0.855469"/><stop stop-opacity="1" stop-color="rgb(1.434326%, 5.737305%, 9.434509%)" offset="0.859375"/><stop stop-opacity="1" stop-color="rgb(1.393127%, 5.577087%, 9.172058%)" offset="0.863281"/><stop stop-opacity="1" stop-color="rgb(1.353455%, 5.418396%, 8.911133%)" offset="0.867188"/><stop stop-opacity="1" stop-color="rgb(1.313782%, 5.258179%, 8.648682%)" offset="0.871094"/><stop stop-opacity="1" stop-color="rgb(1.274109%, 5.099487%, 8.38623%)" offset="0.875"/><stop stop-opacity="1" stop-color="rgb(1.234436%, 4.93927%, 8.123779%)" offset="0.878906"/><stop stop-opacity="1" stop-color="rgb(1.194763%, 4.780579%, 7.862854%)" offset="0.882812"/><stop stop-opacity="1" stop-color="rgb(1.15509%, 4.620361%, 7.600403%)" offset="0.886719"/><stop stop-opacity="1" stop-color="rgb(1.115417%, 4.46167%, 7.337952%)" offset="0.890625"/><stop stop-opacity="1" stop-color="rgb(1.074219%, 4.301453%, 7.0755%)" offset="0.894531"/><stop stop-opacity="1" stop-color="rgb(1.034546%, 4.142761%, 6.814575%)" offset="0.898438"/><stop stop-opacity="1" stop-color="rgb(0.994873%, 3.982544%, 6.552124%)" offset="0.902344"/><stop stop-opacity="1" stop-color="rgb(0.9552%, 3.823853%, 6.289673%)" offset="0.90625"/><stop stop-opacity="1" stop-color="rgb(0.915527%, 3.663635%, 6.027222%)" offset="0.910156"/><stop stop-opacity="1" stop-color="rgb(0.875854%, 3.504944%, 5.766296%)" offset="0.914062"/><stop stop-opacity="1" stop-color="rgb(0.836182%, 3.344727%, 5.503845%)" offset="0.917969"/><stop stop-opacity="1" stop-color="rgb(0.796509%, 3.186035%, 5.241394%)" offset="0.921875"/><stop stop-opacity="1" stop-color="rgb(0.756836%, 3.027344%, 4.978943%)" offset="0.925781"/><stop stop-opacity="1" stop-color="rgb(0.717163%, 2.868652%, 4.716492%)" offset="0.929688"/><stop stop-opacity="1" stop-color="rgb(0.675964%, 2.708435%, 4.454041%)" offset="0.933594"/><stop stop-opacity="1" stop-color="rgb(0.636292%, 2.549744%, 4.193115%)" offset="0.9375"/><stop stop-opacity="1" stop-color="rgb(0.596619%, 2.389526%, 3.930664%)" offset="0.941406"/><stop stop-opacity="1" stop-color="rgb(0.556946%, 2.230835%, 3.668213%)" offset="0.945312"/><stop stop-opacity="1" stop-color="rgb(0.517273%, 2.070618%, 3.405762%)" offset="0.949219"/><stop stop-opacity="1" stop-color="rgb(0.4776%, 1.911926%, 3.144836%)" offset="0.953125"/><stop stop-opacity="1" stop-color="rgb(0.437927%, 1.751709%, 2.882385%)" offset="0.957031"/><stop stop-opacity="1" stop-color="rgb(0.398254%, 1.593018%, 2.619934%)" offset="0.960938"/><stop stop-opacity="1" stop-color="rgb(0.357056%, 1.4328%, 2.357483%)" offset="0.964844"/><stop stop-opacity="1" stop-color="rgb(0.317383%, 1.274109%, 2.096558%)" offset="0.96875"/><stop stop-opacity="1" stop-color="rgb(0.27771%, 1.113892%, 1.834106%)" offset="0.972656"/><stop stop-opacity="1" stop-color="rgb(0.238037%, 0.9552%, 1.571655%)" offset="0.976562"/><stop stop-opacity="1" stop-color="rgb(0.198364%, 0.794983%, 1.309204%)" offset="0.980469"/><stop stop-opacity="1" stop-color="rgb(0.158691%, 0.636292%, 1.048279%)" offset="0.984375"/><stop stop-opacity="1" stop-color="rgb(0.119019%, 0.476074%, 0.785828%)" offset="0.988281"/><stop stop-opacity="1" stop-color="rgb(0.0793457%, 0.317383%, 0.523376%)" offset="0.992188"/><stop stop-opacity="1" stop-color="rgb(0.0396729%, 0.158691%, 0.260925%)" offset="0.996094"/><stop stop-opacity="1" stop-color="rgb(0%, 0%, 0%)" offset="1"/></linearGradient></defs><g clip-path="url(#c5c5a5621a)"><path fill="#ffffff" d="M 0.5 0 L 1536.5 0 L 1536.5 255.5 L 0.5 255.5 Z M 0.5 0 " fill-opacity="1" fill-rule="nonzero"/><path fill="url(#e223f90e95)" d="M 0.5 0 L 0.5 255.5 L 1536.5 255.5 L 1536.5 0 Z M 0.5 0 " fill-rule="nonzero"/></g><g fill="#f4fcff" fill-opacity="1"><g transform="translate(539.634117, 141.986181)"><g><path d="M 7.640625 0 L 3.765625 0 C 3.234375 0 2.96875 -0.265625 2.96875 -0.796875 L 2.96875 -29.171875 C 2.96875 -29.703125 3.234375 -29.96875 3.765625 -29.96875 L 7.640625 -29.96875 C 8.179688 -29.96875 8.453125 -29.703125 8.453125 -29.171875 L 8.453125 -14.625 L 21.421875 -14.625 L 21.421875 -29.171875 C 21.421875 -29.703125 21.6875 -29.96875 22.21875 -29.96875 L 26.109375 -29.96875 C 26.640625 -29.96875 26.90625 -29.703125 26.90625 -29.171875 L 26.90625 -0.796875 C 26.90625 -0.265625 26.640625 0 26.109375 0 L 22.21875 0 C 21.6875 0 21.421875 -0.265625 21.421875 -0.796875 L 21.421875 -9.78125 L 8.453125 -9.78125 L 8.453125 -0.796875 C 8.453125 -0.265625 8.179688 0 7.640625 0 Z M 7.640625 0 "/></g></g></g><g fill="#f4fcff" fill-opacity="1"><g transform="translate(569.523848, 141.986181)"><g><path d="M 5.171875 -22.65625 C 4.585938 -22.65625 4.0625 -22.789062 3.59375 -23.0625 C 3.132812 -23.332031 2.769531 -23.695312 2.5 -24.15625 C 2.226562 -24.625 2.09375 -25.148438 2.09375 -25.734375 C 2.09375 -26.316406 2.226562 -26.84375 2.5 -27.3125 C 2.769531 -27.78125 3.132812 -28.148438 3.59375 -28.421875 C 4.0625 -28.691406 4.585938 -28.828125 5.171875 -28.828125 C 5.753906 -28.828125 6.273438 -28.691406 6.734375 -28.421875 C 7.203125 -28.148438 7.566406 -27.78125 7.828125 -27.3125 C 8.097656 -26.84375 8.234375 -26.316406 8.234375 -25.734375 C 8.234375 -25.148438 8.097656 -24.625 7.828125 -24.15625 C 7.566406 -23.695312 7.203125 -23.332031 6.734375 -23.0625 C 6.273438 -22.789062 5.753906 -22.65625 5.171875 -22.65625 Z M 6.90625 0 L 3.46875 0 C 2.9375 0 2.671875 -0.265625 2.671875 -0.796875 L 2.671875 -19.859375 C 2.671875 -20.390625 2.9375 -20.65625 3.46875 -20.65625 L 6.90625 -20.65625 C 7.4375 -20.65625 7.703125 -20.390625 7.703125 -19.859375 L 7.703125 -0.796875 C 7.703125 -0.265625 7.4375 0 6.90625 0 Z M 6.90625 0 "/></g></g></g><g fill="#f4fcff" fill-opacity="1"><g transform="translate(579.942332, 141.986181)"><g/></g></g><g fill="#f4fcff" fill-opacity="1"><g transform="translate(591.921637, 141.986181)"><g><path d="M 12.609375 0 L 8.6875 0 C 8.144531 0 7.875 -0.265625 7.875 -0.796875 L 7.875 -25.109375 L 1.40625 -25.109375 C 0.875 -25.109375 0.609375 -25.375 0.609375 -25.90625 L 0.609375 -29.171875 C 0.609375 -29.703125 0.875 -29.96875 1.40625 -29.96875 L 19.90625 -29.96875 C 20.4375 -29.96875 20.703125 -29.703125 20.703125 -29.171875 L 20.703125 -25.90625 C 20.703125 -25.375 20.4375 -25.109375 19.90625 -25.109375 L 13.40625 -25.109375 L 13.40625 -0.796875 C 13.40625 -0.265625 13.140625 0 12.609375 0 Z M 12.609375 0 "/></g></g></g><g fill="#f4fcff" fill-opacity="1"><g transform="translate(613.246367, 141.986181)"><g><path d="M 6.90625 0 L 3.46875 0 C 2.9375 0 2.671875 -0.265625 2.671875 -0.796875 L 2.671875 -29.171875 C 2.671875 -29.703125 2.9375 -29.96875 3.46875 -29.96875 L 6.90625 -29.96875 C 7.4375 -29.96875 7.703125 -29.703125 7.703125 -29.171875 L 7.703125 -18.5 C 8.472656 -19.3125 9.367188 -19.945312 10.390625 -20.40625 C 11.421875 -20.863281 12.566406 -21.09375 13.828125 -21.09375 C 15.234375 -21.09375 16.421875 -20.851562 17.390625 -20.375 C 18.367188 -19.90625 19.15625 -19.265625 19.75 -18.453125 C 20.351562 -17.648438 20.789062 -16.753906 21.0625 -15.765625 C 21.34375 -14.773438 21.484375 -13.773438 21.484375 -12.765625 L 21.484375 -0.796875 C 21.484375 -0.265625 21.210938 0 20.671875 0 L 17.25 0 C 16.71875 0 16.453125 -0.265625 16.453125 -0.796875 L 16.453125 -12.03125 C 16.453125 -12.957031 16.285156 -13.765625 15.953125 -14.453125 C 15.617188 -15.140625 15.140625 -15.675781 14.515625 -16.0625 C 13.898438 -16.457031 13.160156 -16.65625 12.296875 -16.65625 C 11.441406 -16.65625 10.664062 -16.460938 9.96875 -16.078125 C 9.28125 -15.703125 8.726562 -15.160156 8.3125 -14.453125 C 7.90625 -13.753906 7.703125 -12.910156 7.703125 -11.921875 L 7.703125 -0.796875 C 7.703125 -0.265625 7.4375 0 6.90625 0 Z M 6.90625 0 "/></g></g></g><g fill="#f4fcff" fill-opacity="1"><g transform="translate(637.185473, 141.986181)"><g><path d="M 12.109375 -21.09375 C 13.578125 -21.09375 14.929688 -20.84375 16.171875 -20.34375 C 17.410156 -19.84375 18.476562 -19.125 19.375 -18.1875 C 20.28125 -17.25 20.984375 -16.128906 21.484375 -14.828125 C 21.984375 -13.535156 22.234375 -12.097656 22.234375 -10.515625 C 22.234375 -10.160156 22.160156 -9.921875 22.015625 -9.796875 C 21.878906 -9.679688 21.664062 -9.625 21.375 -9.625 L 6.6875 -9.625 C 6.738281 -8.425781 7.035156 -7.40625 7.578125 -6.5625 C 8.117188 -5.726562 8.816406 -5.09375 9.671875 -4.65625 C 10.535156 -4.21875 11.46875 -4 12.46875 -4 C 13.425781 -4 14.378906 -4.203125 15.328125 -4.609375 C 16.273438 -5.023438 17.132812 -5.628906 17.90625 -6.421875 C 18.25 -6.742188 18.59375 -6.769531 18.9375 -6.5 L 20.859375 -4.390625 C 21.253906 -4.078125 21.242188 -3.710938 20.828125 -3.296875 C 19.691406 -2.085938 18.382812 -1.160156 16.90625 -0.515625 C 15.425781 0.128906 13.898438 0.453125 12.328125 0.453125 C 10.878906 0.453125 9.519531 0.203125 8.25 -0.296875 C 6.976562 -0.796875 5.859375 -1.515625 4.890625 -2.453125 C 3.921875 -3.390625 3.160156 -4.519531 2.609375 -5.84375 C 2.054688 -7.175781 1.78125 -8.664062 1.78125 -10.3125 C 1.78125 -11.957031 2.035156 -13.4375 2.546875 -14.75 C 3.066406 -16.070312 3.796875 -17.203125 4.734375 -18.140625 C 5.671875 -19.085938 6.765625 -19.816406 8.015625 -20.328125 C 9.273438 -20.835938 10.640625 -21.09375 12.109375 -21.09375 Z M 12.21875 -16.9375 C 11.519531 -16.9375 10.820312 -16.804688 10.125 -16.546875 C 9.425781 -16.285156 8.796875 -15.875 8.234375 -15.3125 C 7.679688 -14.75 7.285156 -14.03125 7.046875 -13.15625 L 17.015625 -13.15625 C 16.816406 -14.03125 16.46875 -14.742188 15.96875 -15.296875 C 15.476562 -15.859375 14.90625 -16.269531 14.25 -16.53125 C 13.601562 -16.800781 12.925781 -16.9375 12.21875 -16.9375 Z M 12.21875 -16.9375 "/></g></g></g><g fill="#f4fcff" fill-opacity="1"><g transform="translate(661.124579, 141.986181)"><g><path d="M 6.90625 0 L 3.46875 0 C 2.9375 0 2.671875 -0.265625 2.671875 -0.796875 L 2.65625 -19.859375 C 2.65625 -20.390625 2.921875 -20.65625 3.453125 -20.65625 L 5.625 -20.65625 C 6.09375 -20.65625 6.382812 -20.421875 6.5 -19.953125 L 7.046875 -17.765625 C 7.773438 -18.960938 8.640625 -19.816406 9.640625 -20.328125 C 10.640625 -20.835938 11.660156 -21.09375 12.703125 -21.09375 C 13.273438 -21.09375 13.890625 -21 14.546875 -20.8125 C 15.035156 -20.664062 15.210938 -20.34375 15.078125 -19.84375 L 14.296875 -16.859375 C 14.179688 -16.378906 13.859375 -16.195312 13.328125 -16.3125 C 13.023438 -16.375 12.738281 -16.421875 12.46875 -16.453125 C 12.207031 -16.484375 11.972656 -16.5 11.765625 -16.5 C 10.460938 -16.5 9.457031 -16.046875 8.75 -15.140625 C 8.050781 -14.242188 7.703125 -12.910156 7.703125 -11.140625 L 7.703125 -0.796875 C 7.703125 -0.265625 7.4375 0 6.90625 0 Z M 6.90625 0 "/></g></g></g><g fill="#f4fcff" fill-opacity="1"><g transform="translate(677.103495, 141.986181)"><g><path d="M 12.109375 -21.09375 C 13.578125 -21.09375 14.929688 -20.84375 16.171875 -20.34375 C 17.410156 -19.84375 18.476562 -19.125 19.375 -18.1875 C 20.28125 -17.25 20.984375 -16.128906 21.484375 -14.828125 C 21.984375 -13.535156 22.234375 -12.097656 22.234375 -10.515625 C 22.234375 -10.160156 22.160156 -9.921875 22.015625 -9.796875 C 21.878906 -9.679688 21.664062 -9.625 21.375 -9.625 L 6.6875 -9.625 C 6.738281 -8.425781 7.035156 -7.40625 7.578125 -6.5625 C 8.117188 -5.726562 8.816406 -5.09375 9.671875 -4.65625 C 10.535156 -4.21875 11.46875 -4 12.46875 -4 C 13.425781 -4 14.378906 -4.203125 15.328125 -4.609375 C 16.273438 -5.023438 17.132812 -5.628906 17.90625 -6.421875 C 18.25 -6.742188 18.59375 -6.769531 18.9375 -6.5 L 20.859375 -4.390625 C 21.253906 -4.078125 21.242188 -3.710938 20.828125 -3.296875 C 19.691406 -2.085938 18.382812 -1.160156 16.90625 -0.515625 C 15.425781 0.128906 13.898438 0.453125 12.328125 0.453125 C 10.878906 0.453125 9.519531 0.203125 8.25 -0.296875 C 6.976562 -0.796875 5.859375 -1.515625 4.890625 -2.453125 C 3.921875 -3.390625 3.160156 -4.519531 2.609375 -5.84375 C 2.054688 -7.175781 1.78125 -8.664062 1.78125 -10.3125 C 1.78125 -11.957031 2.035156 -13.4375 2.546875 -14.75 C 3.066406 -16.070312 3.796875 -17.203125 4.734375 -18.140625 C 5.671875 -19.085938 6.765625 -19.816406 8.015625 -20.328125 C 9.273438 -20.835938 10.640625 -21.09375 12.109375 -21.09375 Z M 12.21875 -16.9375 C 11.519531 -16.9375 10.820312 -16.804688 10.125 -16.546875 C 9.425781 -16.285156 8.796875 -15.875 8.234375 -15.3125 C 7.679688 -14.75 7.285156 -14.03125 7.046875 -13.15625 L 17.015625 -13.15625 C 16.816406 -14.03125 16.46875 -14.742188 15.96875 -15.296875 C 15.476562 -15.859375 14.90625 -16.269531 14.25 -16.53125 C 13.601562 -16.800781 12.925781 -16.9375 12.21875 -16.9375 Z M 12.21875 -16.9375 "/></g></g></g><g fill="#f4fcff" fill-opacity="1"><g transform="translate(701.0426, 141.986181)"><g><path d="M 7.6875 -9.265625 L 4.1875 -9.265625 C 3.65625 -9.265625 3.390625 -9.53125 3.390625 -10.0625 L 3.390625 -29.171875 C 3.390625 -29.703125 3.65625 -29.96875 4.1875 -29.96875 L 7.6875 -29.96875 C 8.21875 -29.96875 8.484375 -29.703125 8.484375 -29.171875 L 8.484375 -10.0625 C 8.484375 -9.53125 8.21875 -9.265625 7.6875 -9.265625 Z M 5.90625 0.453125 C 5.28125 0.453125 4.710938 0.300781 4.203125 0 C 3.691406 -0.3125 3.28125 -0.726562 2.96875 -1.25 C 2.65625 -1.769531 2.5 -2.347656 2.5 -2.984375 C 2.5 -3.609375 2.648438 -4.179688 2.953125 -4.703125 C 3.253906 -5.222656 3.664062 -5.640625 4.1875 -5.953125 C 4.707031 -6.265625 5.28125 -6.421875 5.90625 -6.421875 C 6.539062 -6.421875 7.113281 -6.265625 7.625 -5.953125 C 8.144531 -5.640625 8.5625 -5.222656 8.875 -4.703125 C 9.1875 -4.179688 9.34375 -3.609375 9.34375 -2.984375 C 9.34375 -2.335938 9.1875 -1.753906 8.875 -1.234375 C 8.5625 -0.710938 8.144531 -0.300781 7.625 0 C 7.101562 0.300781 6.53125 0.453125 5.90625 0.453125 Z M 5.90625 0.453125 "/></g></g></g><g fill="#f4fcff" fill-opacity="1"><g transform="translate(712.943864, 141.986181)"><g/></g></g><g fill="#f4fcff" fill-opacity="1"><g transform="translate(724.92317, 141.986181)"><g><path d="M 7.640625 0 L 3.765625 0 C 3.234375 0 2.96875 -0.265625 2.96875 -0.796875 L 2.96875 -29.171875 C 2.96875 -29.703125 3.234375 -29.96875 3.765625 -29.96875 L 7.640625 -29.96875 C 8.179688 -29.96875 8.453125 -29.703125 8.453125 -29.171875 L 8.453125 -0.796875 C 8.453125 -0.265625 8.179688 0 7.640625 0 Z M 7.640625 0 "/></g></g></g><g fill="#f4fcff" fill-opacity="1"><g transform="translate(736.336683, 141.986181)"><g/></g></g><g fill="#f4fcff" fill-opacity="1"><g transform="translate(748.315999, 141.986181)"><g><path d="M 10.515625 -21.09375 C 11.722656 -21.09375 12.859375 -20.953125 13.921875 -20.671875 C 14.992188 -20.398438 15.9375 -19.960938 16.75 -19.359375 C 17.5625 -18.765625 18.195312 -17.988281 18.65625 -17.03125 C 19.125 -16.070312 19.359375 -14.898438 19.359375 -13.515625 L 19.359375 -0.796875 C 19.359375 -0.265625 19.085938 0 18.546875 0 L 16.40625 0 C 15.914062 0 15.625 -0.234375 15.53125 -0.703125 L 15.046875 -2.53125 C 14.492188 -1.789062 13.863281 -1.203125 13.15625 -0.765625 C 12.445312 -0.328125 11.707031 -0.015625 10.9375 0.171875 C 10.175781 0.359375 9.425781 0.453125 8.6875 0.453125 C 7.769531 0.453125 6.890625 0.320312 6.046875 0.0625 C 5.210938 -0.195312 4.472656 -0.585938 3.828125 -1.109375 C 3.191406 -1.628906 2.679688 -2.289062 2.296875 -3.09375 C 1.921875 -3.894531 1.734375 -4.828125 1.734375 -5.890625 C 1.734375 -7.003906 1.941406 -7.976562 2.359375 -8.8125 C 2.785156 -9.644531 3.375 -10.335938 4.125 -10.890625 C 4.875 -11.441406 5.75 -11.859375 6.75 -12.140625 C 7.75 -12.421875 8.828125 -12.5625 9.984375 -12.5625 C 11.367188 -12.5625 12.8125 -12.375 14.3125 -12 L 14.3125 -13.3125 C 14.3125 -14.207031 14.125 -14.914062 13.75 -15.4375 C 13.382812 -15.96875 12.878906 -16.347656 12.234375 -16.578125 C 11.597656 -16.816406 10.875 -16.9375 10.0625 -16.9375 C 9.257812 -16.9375 8.398438 -16.835938 7.484375 -16.640625 C 6.578125 -16.441406 5.675781 -16.175781 4.78125 -15.84375 C 4.257812 -15.65625 3.921875 -15.8125 3.765625 -16.3125 L 2.953125 -18.890625 C 2.773438 -19.378906 2.941406 -19.71875 3.453125 -19.90625 C 4.609375 -20.28125 5.785156 -20.570312 6.984375 -20.78125 C 8.191406 -20.988281 9.367188 -21.09375 10.515625 -21.09375 Z M 9.890625 -3.21875 C 10.359375 -3.21875 10.847656 -3.296875 11.359375 -3.453125 C 11.878906 -3.609375 12.363281 -3.859375 12.8125 -4.203125 C 13.257812 -4.554688 13.617188 -5.023438 13.890625 -5.609375 C 14.171875 -6.191406 14.3125 -6.90625 14.3125 -7.75 L 14.3125 -8.625 C 13.769531 -8.75 13.234375 -8.84375 12.703125 -8.90625 C 12.179688 -8.976562 11.664062 -9.015625 11.15625 -9.015625 C 10.320312 -9.015625 9.570312 -8.910156 8.90625 -8.703125 C 8.25 -8.503906 7.726562 -8.179688 7.34375 -7.734375 C 6.957031 -7.285156 6.765625 -6.695312 6.765625 -5.96875 C 6.765625 -5.34375 6.90625 -4.820312 7.1875 -4.40625 C 7.476562 -4 7.859375 -3.695312 8.328125 -3.5 C 8.804688 -3.3125 9.328125 -3.21875 9.890625 -3.21875 Z M 9.890625 -3.21875 "/></g></g></g><g fill="#f4fcff" fill-opacity="1"><g transform="translate(770.1675, 141.986181)"><g><path d="M 26.15625 -21.09375 C 27.3125 -21.09375 28.347656 -20.890625 29.265625 -20.484375 C 30.179688 -20.078125 30.960938 -19.507812 31.609375 -18.78125 C 32.265625 -18.050781 32.765625 -17.203125 33.109375 -16.234375 C 33.453125 -15.265625 33.625 -14.222656 33.625 -13.109375 L 33.625 -0.796875 C 33.625 -0.265625 33.359375 0 32.828125 0 L 29.40625 0 C 28.863281 0 28.59375 -0.265625 28.59375 -0.796875 L 28.59375 -12.265625 C 28.59375 -13.109375 28.453125 -13.863281 28.171875 -14.53125 C 27.898438 -15.195312 27.488281 -15.71875 26.9375 -16.09375 C 26.394531 -16.476562 25.707031 -16.671875 24.875 -16.671875 C 24.050781 -16.671875 23.320312 -16.484375 22.6875 -16.109375 C 22.0625 -15.742188 21.570312 -15.234375 21.21875 -14.578125 C 20.875 -13.929688 20.703125 -13.1875 20.703125 -12.34375 L 20.703125 -0.796875 C 20.703125 -0.265625 20.4375 0 19.90625 0 L 16.46875 0 C 15.9375 0 15.671875 -0.265625 15.671875 -0.796875 L 15.671875 -12.265625 C 15.671875 -13.109375 15.53125 -13.863281 15.25 -14.53125 C 14.976562 -15.195312 14.5625 -15.71875 14 -16.09375 C 13.445312 -16.476562 12.738281 -16.671875 11.875 -16.671875 C 11.039062 -16.671875 10.304688 -16.484375 9.671875 -16.109375 C 9.046875 -15.742188 8.5625 -15.234375 8.21875 -14.578125 C 7.875 -13.929688 7.703125 -13.1875 7.703125 -12.34375 L 7.703125 -0.796875 C 7.703125 -0.265625 7.4375 0 6.90625 0 L 3.46875 0 C 2.9375 0 2.671875 -0.265625 2.671875 -0.796875 L 2.671875 -19.859375 C 2.671875 -20.390625 2.9375 -20.65625 3.46875 -20.65625 L 5.640625 -20.65625 C 6.109375 -20.65625 6.398438 -20.421875 6.515625 -19.953125 L 6.9375 -18.296875 C 7.96875 -19.328125 9.019531 -20.050781 10.09375 -20.46875 C 11.164062 -20.882812 12.222656 -21.09375 13.265625 -21.09375 C 14.503906 -21.09375 15.640625 -20.804688 16.671875 -20.234375 C 17.703125 -19.660156 18.519531 -18.859375 19.125 -17.828125 C 19.695312 -18.535156 20.363281 -19.128906 21.125 -19.609375 C 21.882812 -20.097656 22.695312 -20.46875 23.5625 -20.71875 C 24.425781 -20.96875 25.289062 -21.09375 26.15625 -21.09375 Z M 26.15625 -21.09375 "/></g></g></g><g fill="#f4fcff" fill-opacity="1"><g transform="translate(806.261486, 141.986181)"><g/></g></g><g fill="#f4fcff" fill-opacity="1"><g transform="translate(818.240803, 141.986181)"><g><path d="M 17.53125 0.703125 C 15.726562 0.703125 14.023438 0.460938 12.421875 -0.015625 C 10.828125 -0.492188 9.375 -1.1875 8.0625 -2.09375 C 6.757812 -3.007812 5.632812 -4.109375 4.6875 -5.390625 C 3.738281 -6.679688 3.003906 -8.128906 2.484375 -9.734375 C 1.972656 -11.347656 1.71875 -13.097656 1.71875 -14.984375 C 1.71875 -16.867188 1.972656 -18.613281 2.484375 -20.21875 C 3.003906 -21.820312 3.738281 -23.269531 4.6875 -24.5625 C 5.632812 -25.851562 6.757812 -26.953125 8.0625 -27.859375 C 9.375 -28.765625 10.828125 -29.457031 12.421875 -29.9375 C 14.015625 -30.425781 15.710938 -30.671875 17.515625 -30.671875 C 19.960938 -30.671875 22.191406 -30.238281 24.203125 -29.375 C 26.210938 -28.519531 27.921875 -27.332031 29.328125 -25.8125 C 29.703125 -25.4375 29.664062 -25.070312 29.21875 -24.71875 L 26.0625 -22.46875 C 25.6875 -22.15625 25.320312 -22.191406 24.96875 -22.578125 C 24.039062 -23.492188 22.941406 -24.222656 21.671875 -24.765625 C 20.410156 -25.304688 19.023438 -25.578125 17.515625 -25.578125 C 16.054688 -25.578125 14.703125 -25.328125 13.453125 -24.828125 C 12.210938 -24.328125 11.125 -23.609375 10.1875 -22.671875 C 9.25 -21.742188 8.519531 -20.628906 8 -19.328125 C 7.476562 -18.023438 7.21875 -16.582031 7.21875 -15 C 7.21875 -13.40625 7.476562 -11.957031 8 -10.65625 C 8.519531 -9.351562 9.25 -8.234375 10.1875 -7.296875 C 11.125 -6.359375 12.21875 -5.640625 13.46875 -5.140625 C 14.726562 -4.640625 16.09375 -4.390625 17.5625 -4.390625 C 19.050781 -4.390625 20.429688 -4.660156 21.703125 -5.203125 C 22.972656 -5.742188 24.0625 -6.472656 24.96875 -7.390625 C 25.320312 -7.753906 25.6875 -7.785156 26.0625 -7.484375 L 29.21875 -5.265625 C 29.675781 -4.910156 29.738281 -4.5625 29.40625 -4.21875 C 28.007812 -2.675781 26.296875 -1.46875 24.265625 -0.59375 C 22.234375 0.269531 19.988281 0.703125 17.53125 0.703125 Z M 17.53125 0.703125 "/></g></g></g><g fill="#f4fcff" fill-opacity="1"><g transform="translate(849.086533, 141.986181)"><g><path d="M 6.90625 0 L 3.46875 0 C 2.9375 0 2.671875 -0.265625 2.671875 -0.796875 L 2.671875 -29.171875 C 2.671875 -29.703125 2.9375 -29.96875 3.46875 -29.96875 L 6.90625 -29.96875 C 7.4375 -29.96875 7.703125 -29.703125 7.703125 -29.171875 L 7.703125 -18.5 C 8.472656 -19.3125 9.367188 -19.945312 10.390625 -20.40625 C 11.421875 -20.863281 12.566406 -21.09375 13.828125 -21.09375 C 15.234375 -21.09375 16.421875 -20.851562 17.390625 -20.375 C 18.367188 -19.90625 19.15625 -19.265625 19.75 -18.453125 C 20.351562 -17.648438 20.789062 -16.753906 21.0625 -15.765625 C 21.34375 -14.773438 21.484375 -13.773438 21.484375 -12.765625 L 21.484375 -0.796875 C 21.484375 -0.265625 21.210938 0 20.671875 0 L 17.25 0 C 16.71875 0 16.453125 -0.265625 16.453125 -0.796875 L 16.453125 -12.03125 C 16.453125 -12.957031 16.285156 -13.765625 15.953125 -14.453125 C 15.617188 -15.140625 15.140625 -15.675781 14.515625 -16.0625 C 13.898438 -16.457031 13.160156 -16.65625 12.296875 -16.65625 C 11.441406 -16.65625 10.664062 -16.460938 9.96875 -16.078125 C 9.28125 -15.703125 8.726562 -15.160156 8.3125 -14.453125 C 7.90625 -13.753906 7.703125 -12.910156 7.703125 -11.921875 L 7.703125 -0.796875 C 7.703125 -0.265625 7.4375 0 6.90625 0 Z M 6.90625 0 "/></g></g></g><g fill="#f4fcff" fill-opacity="1"><g transform="translate(873.025638, 141.986181)"><g><path d="M 10.515625 -21.09375 C 11.722656 -21.09375 12.859375 -20.953125 13.921875 -20.671875 C 14.992188 -20.398438 15.9375 -19.960938 16.75 -19.359375 C 17.5625 -18.765625 18.195312 -17.988281 18.65625 -17.03125 C 19.125 -16.070312 19.359375 -14.898438 19.359375 -13.515625 L 19.359375 -0.796875 C 19.359375 -0.265625 19.085938 0 18.546875 0 L 16.40625 0 C 15.914062 0 15.625 -0.234375 15.53125 -0.703125 L 15.046875 -2.53125 C 14.492188 -1.789062 13.863281 -1.203125 13.15625 -0.765625 C 12.445312 -0.328125 11.707031 -0.015625 10.9375 0.171875 C 10.175781 0.359375 9.425781 0.453125 8.6875 0.453125 C 7.769531 0.453125 6.890625 0.320312 6.046875 0.0625 C 5.210938 -0.195312 4.472656 -0.585938 3.828125 -1.109375 C 3.191406 -1.628906 2.679688 -2.289062 2.296875 -3.09375 C 1.921875 -3.894531 1.734375 -4.828125 1.734375 -5.890625 C 1.734375 -7.003906 1.941406 -7.976562 2.359375 -8.8125 C 2.785156 -9.644531 3.375 -10.335938 4.125 -10.890625 C 4.875 -11.441406 5.75 -11.859375 6.75 -12.140625 C 7.75 -12.421875 8.828125 -12.5625 9.984375 -12.5625 C 11.367188 -12.5625 12.8125 -12.375 14.3125 -12 L 14.3125 -13.3125 C 14.3125 -14.207031 14.125 -14.914062 13.75 -15.4375 C 13.382812 -15.96875 12.878906 -16.347656 12.234375 -16.578125 C 11.597656 -16.816406 10.875 -16.9375 10.0625 -16.9375 C 9.257812 -16.9375 8.398438 -16.835938 7.484375 -16.640625 C 6.578125 -16.441406 5.675781 -16.175781 4.78125 -15.84375 C 4.257812 -15.65625 3.921875 -15.8125 3.765625 -16.3125 L 2.953125 -18.890625 C 2.773438 -19.378906 2.941406 -19.71875 3.453125 -19.90625 C 4.609375 -20.28125 5.785156 -20.570312 6.984375 -20.78125 C 8.191406 -20.988281 9.367188 -21.09375 10.515625 -21.09375 Z M 9.890625 -3.21875 C 10.359375 -3.21875 10.847656 -3.296875 11.359375 -3.453125 C 11.878906 -3.609375 12.363281 -3.859375 12.8125 -4.203125 C 13.257812 -4.554688 13.617188 -5.023438 13.890625 -5.609375 C 14.171875 -6.191406 14.3125 -6.90625 14.3125 -7.75 L 14.3125 -8.625 C 13.769531 -8.75 13.234375 -8.84375 12.703125 -8.90625 C 12.179688 -8.976562 11.664062 -9.015625 11.15625 -9.015625 C 10.320312 -9.015625 9.570312 -8.910156 8.90625 -8.703125 C 8.25 -8.503906 7.726562 -8.179688 7.34375 -7.734375 C 6.957031 -7.285156 6.765625 -6.695312 6.765625 -5.96875 C 6.765625 -5.34375 6.90625 -4.820312 7.1875 -4.40625 C 7.476562 -4 7.859375 -3.695312 8.328125 -3.5 C 8.804688 -3.3125 9.328125 -3.21875 9.890625 -3.21875 Z M 9.890625 -3.21875 "/></g></g></g><g fill="#f4fcff" fill-opacity="1"><g transform="translate(894.877139, 141.986181)"><g><path d="M 26.15625 -21.09375 C 27.3125 -21.09375 28.347656 -20.890625 29.265625 -20.484375 C 30.179688 -20.078125 30.960938 -19.507812 31.609375 -18.78125 C 32.265625 -18.050781 32.765625 -17.203125 33.109375 -16.234375 C 33.453125 -15.265625 33.625 -14.222656 33.625 -13.109375 L 33.625 -0.796875 C 33.625 -0.265625 33.359375 0 32.828125 0 L 29.40625 0 C 28.863281 0 28.59375 -0.265625 28.59375 -0.796875 L 28.59375 -12.265625 C 28.59375 -13.109375 28.453125 -13.863281 28.171875 -14.53125 C 27.898438 -15.195312 27.488281 -15.71875 26.9375 -16.09375 C 26.394531 -16.476562 25.707031 -16.671875 24.875 -16.671875 C 24.050781 -16.671875 23.320312 -16.484375 22.6875 -16.109375 C 22.0625 -15.742188 21.570312 -15.234375 21.21875 -14.578125 C 20.875 -13.929688 20.703125 -13.1875 20.703125 -12.34375 L 20.703125 -0.796875 C 20.703125 -0.265625 20.4375 0 19.90625 0 L 16.46875 0 C 15.9375 0 15.671875 -0.265625 15.671875 -0.796875 L 15.671875 -12.265625 C 15.671875 -13.109375 15.53125 -13.863281 15.25 -14.53125 C 14.976562 -15.195312 14.5625 -15.71875 14 -16.09375 C 13.445312 -16.476562 12.738281 -16.671875 11.875 -16.671875 C 11.039062 -16.671875 10.304688 -16.484375 9.671875 -16.109375 C 9.046875 -15.742188 8.5625 -15.234375 8.21875 -14.578125 C 7.875 -13.929688 7.703125 -13.1875 7.703125 -12.34375 L 7.703125 -0.796875 C 7.703125 -0.265625 7.4375 0 6.90625 0 L 3.46875 0 C 2.9375 0 2.671875 -0.265625 2.671875 -0.796875 L 2.671875 -19.859375 C 2.671875 -20.390625 2.9375 -20.65625 3.46875 -20.65625 L 5.640625 -20.65625 C 6.109375 -20.65625 6.398438 -20.421875 6.515625 -19.953125 L 6.9375 -18.296875 C 7.96875 -19.328125 9.019531 -20.050781 10.09375 -20.46875 C 11.164062 -20.882812 12.222656 -21.09375 13.265625 -21.09375 C 14.503906 -21.09375 15.640625 -20.804688 16.671875 -20.234375 C 17.703125 -19.660156 18.519531 -18.859375 19.125 -17.828125 C 19.695312 -18.535156 20.363281 -19.128906 21.125 -19.609375 C 21.882812 -20.097656 22.695312 -20.46875 23.5625 -20.71875 C 24.425781 -20.96875 25.289062 -21.09375 26.15625 -21.09375 Z M 26.15625 -21.09375 "/></g></g></g><g fill="#f4fcff" fill-opacity="1"><g transform="translate(930.971125, 141.986181)"><g><path d="M 12.78125 0.453125 C 11.207031 0.453125 9.75 0.191406 8.40625 -0.328125 C 7.070312 -0.859375 5.898438 -1.601562 4.890625 -2.5625 C 3.890625 -3.519531 3.109375 -4.65625 2.546875 -5.96875 C 1.992188 -7.289062 1.71875 -8.738281 1.71875 -10.3125 C 1.71875 -11.90625 1.992188 -13.359375 2.546875 -14.671875 C 3.109375 -15.984375 3.890625 -17.117188 4.890625 -18.078125 C 5.898438 -19.046875 7.070312 -19.789062 8.40625 -20.3125 C 9.75 -20.832031 11.207031 -21.09375 12.78125 -21.09375 C 14.363281 -21.09375 15.832031 -20.832031 17.1875 -20.3125 C 18.539062 -19.789062 19.71875 -19.046875 20.71875 -18.078125 C 21.71875 -17.117188 22.492188 -15.984375 23.046875 -14.671875 C 23.609375 -13.359375 23.890625 -11.90625 23.890625 -10.3125 C 23.890625 -8.738281 23.609375 -7.289062 23.046875 -5.96875 C 22.492188 -4.65625 21.71875 -3.519531 20.71875 -2.5625 C 19.71875 -1.601562 18.539062 -0.859375 17.1875 -0.328125 C 15.832031 0.191406 14.363281 0.453125 12.78125 0.453125 Z M 12.78125 -4.0625 C 13.976562 -4.0625 15.035156 -4.328125 15.953125 -4.859375 C 16.867188 -5.398438 17.585938 -6.140625 18.109375 -7.078125 C 18.628906 -8.023438 18.890625 -9.101562 18.890625 -10.3125 C 18.890625 -11.539062 18.628906 -12.625 18.109375 -13.5625 C 17.585938 -14.507812 16.867188 -15.253906 15.953125 -15.796875 C 15.035156 -16.335938 13.976562 -16.609375 12.78125 -16.609375 C 11.625 -16.609375 10.585938 -16.335938 9.671875 -15.796875 C 8.753906 -15.253906 8.035156 -14.507812 7.515625 -13.5625 C 6.992188 -12.625 6.734375 -11.539062 6.734375 -10.3125 C 6.734375 -9.101562 6.992188 -8.023438 7.515625 -7.078125 C 8.035156 -6.140625 8.753906 -5.398438 9.671875 -4.859375 C 10.585938 -4.328125 11.625 -4.0625 12.78125 -4.0625 Z M 12.78125 -4.0625 "/></g></g></g><g fill="#f4fcff" fill-opacity="1"><g transform="translate(956.607607, 141.986181)"><g><path d="M 24.171875 -29.171875 L 24.203125 -0.796875 C 24.203125 -0.265625 23.9375 0 23.40625 0 L 21.25 0 C 20.78125 0 20.484375 -0.234375 20.359375 -0.703125 L 19.78125 -2.890625 C 18.875 -1.816406 17.757812 -0.988281 16.4375 -0.40625 C 15.113281 0.164062 13.707031 0.453125 12.21875 0.453125 C 10.726562 0.453125 9.347656 0.171875 8.078125 -0.390625 C 6.804688 -0.953125 5.695312 -1.722656 4.75 -2.703125 C 3.800781 -3.691406 3.0625 -4.835938 2.53125 -6.140625 C 2.007812 -7.441406 1.75 -8.832031 1.75 -10.3125 C 1.75 -11.800781 2.007812 -13.195312 2.53125 -14.5 C 3.0625 -15.800781 3.800781 -16.941406 4.75 -17.921875 C 5.695312 -18.910156 6.804688 -19.6875 8.078125 -20.25 C 9.347656 -20.8125 10.726562 -21.09375 12.21875 -21.09375 C 13.507812 -21.09375 14.753906 -20.863281 15.953125 -20.40625 C 17.160156 -19.945312 18.226562 -19.296875 19.15625 -18.453125 L 19.140625 -29.171875 C 19.140625 -29.703125 19.40625 -29.96875 19.9375 -29.96875 L 23.375 -29.96875 C 23.90625 -29.96875 24.171875 -29.703125 24.171875 -29.171875 Z M 13.046875 -4.0625 C 13.921875 -4.0625 14.734375 -4.222656 15.484375 -4.546875 C 16.242188 -4.867188 16.910156 -5.316406 17.484375 -5.890625 C 18.066406 -6.460938 18.519531 -7.128906 18.84375 -7.890625 C 19.164062 -8.648438 19.328125 -9.457031 19.328125 -10.3125 C 19.328125 -11.1875 19.164062 -12 18.84375 -12.75 C 18.519531 -13.507812 18.066406 -14.175781 17.484375 -14.75 C 16.910156 -15.332031 16.242188 -15.785156 15.484375 -16.109375 C 14.734375 -16.441406 13.921875 -16.609375 13.046875 -16.609375 C 12.191406 -16.609375 11.382812 -16.441406 10.625 -16.109375 C 9.863281 -15.785156 9.195312 -15.332031 8.625 -14.75 C 8.050781 -14.175781 7.597656 -13.507812 7.265625 -12.75 C 6.941406 -12 6.78125 -11.1875 6.78125 -10.3125 C 6.78125 -9.457031 6.941406 -8.648438 7.265625 -7.890625 C 7.597656 -7.128906 8.050781 -6.460938 8.625 -5.890625 C 9.195312 -5.316406 9.863281 -4.867188 10.625 -4.546875 C 11.382812 -4.222656 12.191406 -4.0625 13.046875 -4.0625 Z M 13.046875 -4.0625 "/></g></g></g><g fill="#f4fcff" fill-opacity="1"><g transform="translate(983.492747, 141.986181)"><g><path d="M 6.90625 0.453125 C 6.28125 0.453125 5.707031 0.300781 5.1875 0 C 4.675781 -0.3125 4.265625 -0.726562 3.953125 -1.25 C 3.640625 -1.769531 3.484375 -2.347656 3.484375 -2.984375 C 3.484375 -3.609375 3.632812 -4.179688 3.9375 -4.703125 C 4.25 -5.222656 4.664062 -5.640625 5.1875 -5.953125 C 5.707031 -6.265625 6.28125 -6.421875 6.90625 -6.421875 C 7.539062 -6.421875 8.117188 -6.265625 8.640625 -5.953125 C 9.160156 -5.640625 9.570312 -5.222656 9.875 -4.703125 C 10.1875 -4.179688 10.34375 -3.609375 10.34375 -2.984375 C 10.34375 -2.335938 10.1875 -1.753906 9.875 -1.234375 C 9.5625 -0.710938 9.144531 -0.300781 8.625 0 C 8.101562 0.300781 7.53125 0.453125 6.90625 0.453125 Z M 6.90625 0.453125 "/></g></g></g></svg>